# xmcd
#
# Track frame offsets:
#	150
#	18515
#	36813
#
# Disc length: 936 seconds
#
# Revision: 0
# Processed by: cddbd v1.5.2PL0 Copyright (c) Steve Scherf et al.
# Submitted via: audiograbber 1.83.01
#
DISCID=1b03a603
DTITLE=Gavin Bryars with Tom Waits - Jesus' blood never failed me yet
DYEAR=1993
DGENRE=Blues
TTITLE0=Jesus' blood never failed me yet ( the single)
TTITLE1=Jesus' blood never failed me yet (single remix)
TTITLE2=Jesus' blood never failed me yet  (string quartet edit)
EXTD=CD single
EXTT0=
EXTT1=
EXTT2=
PLAYORDER=
